<svg xmlns="http://www.w3.org/2000/svg" xmlns:xlink="http://www.w3.org/1999/xlink" xmlns:inkscape="http://www.inkscape.org/namespaces/inkscape" version="1.1" width="459.782" height="242.655" viewBox="0 0 459.782 242.655">
<path transform="matrix(1,0,0,-1,14.73,114.434009)" d="M-14.73047-128.22235V114.43573H445.05747V-128.22235ZM445.05747 114.43573" fill="#ffffff"/>
<text xml:space="preserve" transform="matrix(1 0 -0 1 -.0000038146974 242.655)" font-size="17.2154" font-family="Computer Modern" font-weight="bold"><tspan y="-223.166" x="55.032 69.30357 84.78022 100.274089 117.88544 129.04102 147.90909 156.17249 165.4688 180.94544 196.43929 205.7356 216.04763 223.55355 232.33339 242.12895 247.29358 262.77024 272.06657 282.37858 291.6749 299.18083 314.65748 324.96949 339.58537 345.26646 355.57847 365.89048 374.15388 383.96665 392.38499">UmaMLPcomoaproximadoradefun&#x00e7;&#x00f5;es</tspan></text>
<path transform="matrix(1,0,0,-1,14.73,114.434009)" stroke-width=".79701" stroke-linecap="butt" stroke-miterlimit="10" stroke-linejoin="miter" fill="none" stroke="#4c4d4c" d="M-5.66927 0H95.10347"/>
<path transform="matrix(1,0,0,-1,107.36838,114.434009)" d="M5.44046 0 1.28699 1.5706 2.66432 0 1.28699-1.5706Z" fill="#4c4d4c"/>
<path transform="matrix(1,0,0,-1,107.36838,114.434009)" stroke-width=".79701" stroke-linecap="butt" stroke-miterlimit="10" stroke-linejoin="miter" fill="none" stroke="#4c4d4c" d="M5.44046 0 1.28699 1.5706 2.66432 0 1.28699-1.5706Z"/>
<text xml:space="preserve" transform="matrix(1 0 -0 1 -.0000076293949 242.655)" font-size="9.9626" font-family="Computer Modern" font-style="italic"><tspan y="-126.076" x="117.661">x</tspan></text>
<path transform="matrix(1,0,0,-1,14.73,114.434009)" stroke-width=".79701" stroke-linecap="butt" stroke-miterlimit="10" stroke-linejoin="miter" fill="none" stroke="#4c4d4c" d="M0-42.5202V46.91397"/>
<path transform="matrix(0,-1,-1,-0,14.73,69.98512)" d="M5.44046 0 1.28699 1.5706 2.66432 0 1.28699-1.5706Z" fill="#4c4d4c"/>
<path transform="matrix(0,-1,-1,-0,14.73,69.98512)" stroke-width=".79701" stroke-linecap="butt" stroke-miterlimit="10" stroke-linejoin="miter" fill="none" stroke="#4c4d4c" d="M5.44046 0 1.28699 1.5706 2.66432 0 1.28699-1.5706Z"/>
<text xml:space="preserve" transform="matrix(1 0 -0 1 -.0000009536743 242.655)" font-size="9.9626" font-family="Computer Modern" font-style="italic"><tspan y="-184.9" x="12.109">y</tspan></text>
<path transform="matrix(1,0,0,-1,14.73,114.434009)" stroke-width=".79701" stroke-linecap="butt" stroke-dasharray="2.98883,2.98883" stroke-miterlimit="10" stroke-linejoin="miter" fill="none" stroke="#8c8c8c" d="M0 0C0 0 1.31223 1.57399 1.81622 2.17694 2.3202 2.7799 3.12845 3.74622 3.63245 4.34569 4.13643 4.94516 4.94467 5.90428 5.44867 6.49757 5.95267 7.09087 6.76091 8.03711 7.2649 8.62177 7.76889 9.20642 8.57713 10.13776 9.08112 10.71135 9.58511 11.28496 10.39336 12.19586 10.89735 12.75595 11.40134 13.31606 12.20958 14.20367 12.71358 14.74823 13.21756 15.2928 14.0258 16.15402 14.5298 16.68082 15.0338 17.20761 15.84204 18.03842 16.34602 18.54506 16.85002 19.0517 17.65826 19.84782 18.16225 20.3323 18.66624 20.81679 19.47449 21.5765 19.97849 22.03693 20.48247 22.49736 21.29071 23.21643 21.79471 23.65073 22.29869 24.08504 23.10693 24.76067 23.61093 25.1672 24.11491 25.57373 24.92317 26.20363 25.42715 26.58075 25.93115 26.95786 26.73941 27.53918 27.2434 27.88527 27.74739 28.23135 28.55563 28.76161 29.05962 29.0752 29.56361 29.38876 30.37186 29.86533 30.87585 30.1453 31.37984 30.42525 32.18808 30.84782 32.69208 31.09297 33.19606 31.33812 34.0043 31.70317 34.5083 31.9122 35.0123 32.12123 35.82054 32.42705 36.32452 32.5995 36.82852 32.77197 37.63676 33.02023 38.14075 33.15532 38.64474 33.2904 39.45299 33.4763 39.95699 33.57315 40.46097 33.67 41.26921 33.79475 41.77321 33.85342 42.27719 33.91211 43.08543 33.97614 43.58943 33.99617 44.09341 34.01622 44.90167 34.01674 45.40565 33.99791 45.90965 33.97908 46.7179 33.91762 47.22188 33.86037 47.72588 33.80312 48.53412 33.68098 49.0381 33.58527 49.5421 33.48956 50.35034 33.3044 50.85434 33.17046 51.35832 33.0365 52.16658 32.79105 52.67058 32.61984 53.17456 32.44862 53.9828 32.14438 54.4868 31.93643 54.9908 31.72849 55.79904 31.36504 56.30302 31.1211 56.80702 30.87714 57.61526 30.45691 58.11925 30.17816 58.62325 29.8994 59.43149 29.42442 59.93549 29.11195 60.43947 28.79947 61.24771 28.27101 61.75171 27.92593 62.25569 27.58087 63.06393 27.00102 63.56793 26.62486 64.07193 26.2487 64.88017 25.62036 65.38416 25.21478 65.88815 24.8092 66.6964 24.13528 67.20038 23.70177 67.70438 23.26823 68.51262 22.54971 69.01662 22.09013 69.5206 21.63057 70.32884 20.87303 70.83284 20.38939 71.33682 19.90573 72.14507 19.11028 72.64906 18.60431 73.15305 18.09834 73.9613 17.26874 74.46529 16.74266 74.96928 16.21658 75.77753 15.35669 76.28151 14.81268 76.7855 14.26866 77.59377 13.38144 78.09775 12.8217 78.60175 12.26196 79.40999 11.35162 79.91399 10.7784 80.41797 10.20515 81.22621 9.27446 81.73021 8.69011 82.23419 8.10576 83.04243 7.15976 83.54643 6.56677 84.05043 5.97379 84.85867 5.01537 85.36266 4.4162 85.86665 3.81703 86.6749 2.85127 87.17888 2.24832 87.68288 1.64537 88.99512 .07048 88.99512 .07048"/>
<path transform="matrix(1,0,0,-1,14.73,114.434009)" d="M7.86107 8.9704C7.86107 10.1809 6.87978 11.1622 5.66927 11.1622 4.45876 11.1622 3.47746 10.1809 3.47746 8.9704 3.47746 7.75989 4.45876 6.77858 5.66927 6.77858 6.87978 6.77858 7.86107 7.75989 7.86107 8.9704ZM5.66927 8.9704" fill="#4d4dff"/>
<path transform="matrix(1,0,0,-1,14.73,114.434009)" stroke-width=".3985" stroke-linecap="butt" stroke-miterlimit="10" stroke-linejoin="miter" fill="none" stroke="#0000cc" d="M7.86107 8.9704C7.86107 10.1809 6.87978 11.1622 5.66927 11.1622 4.45876 11.1622 3.47746 10.1809 3.47746 8.9704 3.47746 7.75989 4.45876 6.77858 5.66927 6.77858 6.87978 6.77858 7.86107 7.75989 7.86107 8.9704ZM5.66927 8.9704"/>
<path transform="matrix(1,0,0,-1,14.73,114.434009)" d="M16.36519 15.89792C16.36519 17.10841 15.3839 18.08972 14.17339 18.08972 12.96289 18.08972 11.98158 17.10841 11.98158 15.89792 11.98158 14.68741 12.96289 13.70612 14.17339 13.70612 15.3839 13.70612 16.36519 14.68741 16.36519 15.89792ZM14.17339 15.89792" fill="#4d4dff"/>
<path transform="matrix(1,0,0,-1,14.73,114.434009)" stroke-width=".3985" stroke-linecap="butt" stroke-miterlimit="10" stroke-linejoin="miter" fill="none" stroke="#0000cc" d="M16.36519 15.89792C16.36519 17.10841 15.3839 18.08972 14.17339 18.08972 12.96289 18.08972 11.98158 17.10841 11.98158 15.89792 11.98158 14.68741 12.96289 13.70612 14.17339 13.70612 15.3839 13.70612 16.36519 14.68741 16.36519 15.89792ZM14.17339 15.89792"/>
<path transform="matrix(1,0,0,-1,14.73,114.434009)" d="M26.28676 25.45007C26.28676 26.66058 25.30545 27.64189 24.09494 27.64189 22.88445 27.64189 21.90314 26.66058 21.90314 25.45007 21.90314 24.23958 22.88445 23.25827 24.09494 23.25827 25.30545 23.25827 26.28676 24.23958 26.28676 25.45007ZM24.09494 25.45007" fill="#4d4dff"/>
<path transform="matrix(1,0,0,-1,14.73,114.434009)" stroke-width=".3985" stroke-linecap="butt" stroke-miterlimit="10" stroke-linejoin="miter" fill="none" stroke="#0000cc" d="M26.28676 25.45007C26.28676 26.66058 25.30545 27.64189 24.09494 27.64189 22.88445 27.64189 21.90314 26.66058 21.90314 25.45007 21.90314 24.23958 22.88445 23.25827 24.09494 23.25827 25.30545 23.25827 26.28676 24.23958 26.28676 25.45007ZM24.09494 25.45007"/>
<path transform="matrix(1,0,0,-1,14.73,114.434009)" d="M36.20789 30.67471C36.20789 31.88521 35.22658 32.86652 34.01608 32.86652 32.80557 32.86652 31.82426 31.88521 31.82426 30.67471 31.82426 29.4642 32.80557 28.48291 34.01608 28.48291 35.22658 28.48291 36.20789 29.4642 36.20789 30.67471ZM34.01608 30.67471" fill="#4d4dff"/>
<path transform="matrix(1,0,0,-1,14.73,114.434009)" stroke-width=".3985" stroke-linecap="butt" stroke-miterlimit="10" stroke-linejoin="miter" fill="none" stroke="#0000cc" d="M36.20789 30.67471C36.20789 31.88521 35.22658 32.86652 34.01608 32.86652 32.80557 32.86652 31.82426 31.88521 31.82426 30.67471 31.82426 29.4642 32.80557 28.48291 34.01608 28.48291 35.22658 28.48291 36.20789 29.4642 36.20789 30.67471ZM34.01608 30.67471"/>
<path transform="matrix(1,0,0,-1,14.73,114.434009)" d="M46.12944 30.19978C46.12944 31.4103 45.14813 32.39159 43.93764 32.39159 42.72713 32.39159 41.74582 31.4103 41.74582 30.19978 41.74582 28.98929 42.72713 28.00798 43.93764 28.00798 45.14813 28.00798 46.12944 28.98929 46.12944 30.19978ZM43.93764 30.19978" fill="#4d4dff"/>
<path transform="matrix(1,0,0,-1,14.73,114.434009)" stroke-width=".3985" stroke-linecap="butt" stroke-miterlimit="10" stroke-linejoin="miter" fill="none" stroke="#0000cc" d="M46.12944 30.19978C46.12944 31.4103 45.14813 32.39159 43.93764 32.39159 42.72713 32.39159 41.74582 31.4103 41.74582 30.19978 41.74582 28.98929 42.72713 28.00798 43.93764 28.00798 45.14813 28.00798 46.12944 28.98929 46.12944 30.19978ZM43.93764 30.19978"/>
<path transform="matrix(1,0,0,-1,14.73,114.434009)" d="M58.88542 26.91856C58.88542 28.12906 57.90411 29.11037 56.69362 29.11037 55.48311 29.11037 54.5018 28.12906 54.5018 26.91856 54.5018 25.70805 55.48311 24.72676 56.69362 24.72676 57.90411 24.72676 58.88542 25.70805 58.88542 26.91856ZM56.69362 26.91856" fill="#4d4dff"/>
<path transform="matrix(1,0,0,-1,14.73,114.434009)" stroke-width=".3985" stroke-linecap="butt" stroke-miterlimit="10" stroke-linejoin="miter" fill="none" stroke="#0000cc" d="M58.88542 26.91856C58.88542 28.12906 57.90411 29.11037 56.69362 29.11037 55.48311 29.11037 54.5018 28.12906 54.5018 26.91856 54.5018 25.70805 55.48311 24.72676 56.69362 24.72676 57.90411 24.72676 58.88542 25.70805 58.88542 26.91856ZM56.69362 26.91856"/>
<path transform="matrix(1,0,0,-1,14.73,114.434009)" d="M68.80698 21.8012C68.80698 23.0117 67.82567 23.993 66.61517 23.993 65.40466 23.993 64.42336 23.0117 64.42336 21.8012 64.42336 20.5907 65.40466 19.60939 66.61517 19.60939 67.82567 19.60939 68.80698 20.5907 68.80698 21.8012ZM66.61517 21.8012" fill="#4d4dff"/>
<path transform="matrix(1,0,0,-1,14.73,114.434009)" stroke-width=".3985" stroke-linecap="butt" stroke-miterlimit="10" stroke-linejoin="miter" fill="none" stroke="#0000cc" d="M68.80698 21.8012C68.80698 23.0117 67.82567 23.993 66.61517 23.993 65.40466 23.993 64.42336 23.0117 64.42336 21.8012 64.42336 20.5907 65.40466 19.60939 66.61517 19.60939 67.82567 19.60939 68.80698 20.5907 68.80698 21.8012ZM66.61517 21.8012"/>
<path transform="matrix(1,0,0,-1,14.73,114.434009)" d="M78.72809 11.8857C78.72809 13.09619 77.74678 14.0775 76.53629 14.0775 75.32578 14.0775 74.34448 13.09619 74.34448 11.8857 74.34448 10.67519 75.32578 9.69388 76.53629 9.69388 77.74678 9.69388 78.72809 10.67519 78.72809 11.8857ZM76.53629 11.8857" fill="#4d4dff"/>
<path transform="matrix(1,0,0,-1,14.73,114.434009)" stroke-width=".3985" stroke-linecap="butt" stroke-miterlimit="10" stroke-linejoin="miter" fill="none" stroke="#0000cc" d="M78.72809 11.8857C78.72809 13.09619 77.74678 14.0775 76.53629 14.0775 75.32578 14.0775 74.34448 13.09619 74.34448 11.8857 74.34448 10.67519 75.32578 9.69388 76.53629 9.69388 77.74678 9.69388 78.72809 10.67519 78.72809 11.8857ZM76.53629 11.8857"/>
<path transform="matrix(1,0,0,-1,14.73,114.434009)" d="M87.23222 6.67793C87.23222 7.88844 86.25093 8.86974 85.04042 8.86974 83.82993 8.86974 82.84862 7.88844 82.84862 6.67793 82.84862 5.46742 83.82993 4.48613 85.04042 4.48613 86.25093 4.48613 87.23222 5.46742 87.23222 6.67793ZM85.04042 6.67793" fill="#4d4dff"/>
<path transform="matrix(1,0,0,-1,14.73,114.434009)" stroke-width=".3985" stroke-linecap="butt" stroke-miterlimit="10" stroke-linejoin="miter" fill="none" stroke="#0000cc" d="M87.23222 6.67793C87.23222 7.88844 86.25093 8.86974 85.04042 8.86974 83.82993 8.86974 82.84862 7.88844 82.84862 6.67793 82.84862 5.46742 83.82993 4.48613 85.04042 4.48613 86.25093 4.48613 87.23222 5.46742 87.23222 6.67793ZM85.04042 6.67793"/>
<path transform="matrix(1,0,0,-1,14.73,114.434009)" stroke-width=".79701" stroke-linecap="butt" stroke-dasharray="2.98883,2.98883" stroke-miterlimit="10" stroke-linejoin="miter" fill="none" stroke="#8c8c8c" d="M8.50412 73.70186H22.67752"/>
<text xml:space="preserve" transform="matrix(1 0 -0 1 0 242.655)" font-size="8.9664" font-family="Computer Modern" font-style="italic"><tspan y="-199.68" x="40.926">y</tspan></text>
<text xml:space="preserve" transform="matrix(1 0 -0 1 0 242.655)" font-size="8.9664" font-family="Computer Modern"><tspan y="-199.68" x="48.341215 58.06976 61.701154 64.26554 69.38535">=sin(</tspan></text>
<text xml:space="preserve" transform="matrix(1 0 -0 1 0 242.655)" font-size="8.9664" font-family="Computer Modern" font-style="italic"><tspan y="-199.68" x="72.97192">x</tspan></text>
<text xml:space="preserve" transform="matrix(1 0 -0 1 0 242.655)" font-size="8.9664" font-family="Computer Modern"><tspan y="-199.68" x="78.199329">)</tspan></text>
<path transform="matrix(1,0,0,-1,14.73,114.434009)" d="M17.78262 62.36288C17.78262 63.5734 16.80133 64.55469 15.59082 64.55469 14.38033 64.55469 13.39902 63.5734 13.39902 62.36288 13.39902 61.15239 14.38033 60.17108 15.59082 60.17108 16.80133 60.17108 17.78262 61.15239 17.78262 62.36288ZM15.59082 62.36288" fill="#4d4dff"/>
<path transform="matrix(1,0,0,-1,14.73,114.434009)" stroke-width=".3985" stroke-linecap="butt" stroke-miterlimit="10" stroke-linejoin="miter" fill="none" stroke="#0000cc" d="M17.78262 62.36288C17.78262 63.5734 16.80133 64.55469 15.59082 64.55469 14.38033 64.55469 13.39902 63.5734 13.39902 62.36288 13.39902 61.15239 14.38033 60.17108 15.59082 60.17108 16.80133 60.17108 17.78262 61.15239 17.78262 62.36288ZM15.59082 62.36288"/>
<text xml:space="preserve" transform="matrix(1 0 -0 1 0 242.65502)" font-size="8.9664" font-family="Computer Modern"><tspan y="-187.826" x="40.926 45.53473 53.20997 57.8187 61.450094 65.03665 68.64114 73.24987">amostras</tspan></text>
<text xml:space="preserve" transform="matrix(1 0 -0 1 0 242.655)" font-size="9.9626" font-family="Computer Modern" font-weight="bold"><tspan y="-68.09" x="17.298 26.085015 31.654109 38.02021 43.748708 52.087408 58.453508 67.51947 71.972759 76.69503 81.94532 85.12339 91.489498">Dadosdetreino</tspan></text>
<text xml:space="preserve" transform="matrix(1 0 -0 1 -.00000047683718 242.655)" font-size="8.9664" font-family="Computer Modern"><tspan y="-57.948" x="7.608">(</tspan></text>
<text xml:space="preserve" transform="matrix(1 0 -0 1 -.00000047683718 242.655)" font-size="8.9664" font-family="Computer Modern" font-style="italic"><tspan y="-57.948" x="11.19456">x</tspan></text>
<text xml:space="preserve" transform="matrix(1 0 -0 1 -.00000047683718 242.655)" font-size="5.9776" font-family="Computer Modern" font-style="italic"><tspan y="-56.952005" x="16.415">i</tspan></text>
<text xml:space="preserve" transform="matrix(1 0 -0 1 -.00000047683718 242.655)" font-size="8.9664" font-family="Computer Modern" font-style="italic"><tspan y="-57.948" x="19.577002 23.674647">,y</tspan></text>
<text xml:space="preserve" transform="matrix(1 0 -0 1 -.00000047683718 242.655)" font-size="5.9776" font-family="Computer Modern" font-style="italic"><tspan y="-56.952005" x="28.211003">i</tspan></text>
<text xml:space="preserve" transform="matrix(1 0 -0 1 -.00000047683718 242.655)" font-size="8.9664" font-family="Computer Modern"><tspan y="-57.948" x="31.373003">)</tspan></text>
<text xml:space="preserve" transform="matrix(1 0 -0 1 -.00000047683718 242.655)" font-size="8.9664" font-family="Computer Modern"><tspan y="-57.948" x="34.959566 40.59046 44.679143 49.287874">,com</tspan></text>
<text xml:space="preserve" transform="matrix(1 0 -0 1 -.00000047683718 242.655)" font-size="8.9664" font-family="Computer Modern" font-style="italic"><tspan y="-57.948" x="60.038587">y</tspan></text>
<text xml:space="preserve" transform="matrix(1 0 -0 1 -.00000047683718 242.655)" font-size="5.9776" font-family="Computer Modern" font-style="italic"><tspan y="-56.952005" x="64.576007">i</tspan></text>
<text xml:space="preserve" transform="matrix(1 0 -0 1 -.00000047683718 242.655)" font-size="8.9664" font-family="Computer Modern"><tspan y="-57.948" x="70.297008 80.01659 83.64798 86.21237 91.332187">=sin(</tspan></text>
<text xml:space="preserve" transform="matrix(1 0 -0 1 -.00000047683718 242.655)" font-size="8.9664" font-family="Computer Modern" font-style="italic"><tspan y="-57.948" x="94.91875">x</tspan></text>
<text xml:space="preserve" transform="matrix(1 0 -0 1 -.00000047683718 242.655)" font-size="5.9776" font-family="Computer Modern" font-style="italic"><tspan y="-56.952005" x="100.146">i</tspan></text>
<text xml:space="preserve" transform="matrix(1 0 -0 1 -.00000047683718 242.655)" font-size="8.9664" font-family="Computer Modern"><tspan y="-57.948" x="103.30801">)</tspan></text>
<path transform="matrix(1,0,0,-1,14.73,114.434009)" stroke-width="1.49442" stroke-linecap="butt" stroke-miterlimit="10" stroke-linejoin="miter" fill="none" stroke="#0000cc" d="M102.04868 14.17339H118.78416"/>
<path transform="matrix(1,0,0,-1,129.74208,100.26061)" d="M7.58568 0 2.413 1.96426 4.14568 0 2.413-1.96426Z" fill="#0000cc"/>
<path transform="matrix(1,0,0,-1,129.74208,100.26061)" stroke-width="1.49442" stroke-linecap="butt" stroke-miterlimit="10" stroke-linejoin="miter" fill="none" stroke="#0000cc" d="M7.58568 0 2.413 1.96426 4.14568 0 2.413-1.96426Z"/>
<text xml:space="preserve" transform="matrix(1 0 -0 1 -.0000076293949 242.655)" font-size="8.9664" font-family="Computer Modern"><tspan y="-170.122" x="116.331 119.917568 123.52206 127.619709 130.17513 135.29494">treino</tspan><tspan y="-159.163" x="121.436008 126.55582 131.16455">dos</tspan><tspan y="-148.204" x="117.442 122.82184 126.91948 130.55088 135.1596">pesos</tspan></text>
<path transform="matrix(1,0,0,-1,14.73,114.434009)" d="M130.39548-46.04294V63.05121C130.39548 65.80238 132.62569 68.0326 135.37686 68.0326H289.82569C292.57685 68.0326 294.80705 65.80238 294.80705 63.05121V-46.04294C294.80705-48.79411 292.57685-51.02432 289.82569-51.02432H135.37686C132.62569-51.02432 130.39548-48.79411 130.39548-46.04294ZM294.80705 68.0326" fill="#f7f7ff"/>
<path transform="matrix(1,0,0,-1,14.73,114.434009)" stroke-width=".79701" stroke-linecap="butt" stroke-miterlimit="10" stroke-linejoin="miter" fill="none" stroke="#000099" d="M130.39548-46.04294V63.05121C130.39548 65.80238 132.62569 68.0326 135.37686 68.0326H289.82569C292.57685 68.0326 294.80705 65.80238 294.80705 63.05121V-46.04294C294.80705-48.79411 292.57685-51.02432 289.82569-51.02432H135.37686C132.62569-51.02432 130.39548-48.79411 130.39548-46.04294ZM294.80705 68.0326"/>
<text xml:space="preserve" transform="matrix(1 0 -0 1 0 242.655)" font-size="11.9552" font-family="Computer Modern" font-weight="bold"><tspan y="-180.788" x="212.319 225.0752 233.1569">MLP</tspan></text>
<path transform="matrix(1,0,0,-1,14.73,114.434009)" stroke-width=".3985" stroke-linecap="butt" stroke-miterlimit="10" stroke-linejoin="miter" fill="none" stroke="#9999ff" d="M147.40373 7.08669 189.92395-22.67754"/>
<path transform="matrix(1,0,0,-1,14.73,114.434009)" stroke-width=".3985" stroke-linecap="butt" stroke-miterlimit="10" stroke-linejoin="miter" fill="none" stroke="#9999ff" d="M235.27858-22.67754 277.7988 7.08669"/>
<path transform="matrix(1,0,0,-1,14.73,114.434009)" stroke-width=".3985" stroke-linecap="butt" stroke-miterlimit="10" stroke-linejoin="miter" fill="none" stroke="#9999ff" d="M189.92395-22.67754H235.27858"/>
<path transform="matrix(1,0,0,-1,14.73,114.434009)" stroke-width=".3985" stroke-linecap="butt" stroke-miterlimit="10" stroke-linejoin="miter" fill="none" stroke="#9999ff" d="M189.92395-22.67754 235.27858-2.83441"/>
<path transform="matrix(1,0,0,-1,14.73,114.434009)" stroke-width=".3985" stroke-linecap="butt" stroke-miterlimit="10" stroke-linejoin="miter" fill="none" stroke="#9999ff" d="M189.92395-22.67754 235.27858 17.00824"/>
<path transform="matrix(1,0,0,-1,14.73,114.434009)" stroke-width=".3985" stroke-linecap="butt" stroke-miterlimit="10" stroke-linejoin="miter" fill="none" stroke="#9999ff" d="M189.92395-22.67754 235.27858 36.85092"/>
<path transform="matrix(1,0,0,-1,14.73,114.434009)" stroke-width=".3985" stroke-linecap="butt" stroke-miterlimit="10" stroke-linejoin="miter" fill="none" stroke="#9999ff" d="M147.40373 7.08669 189.92395-2.83441"/>
<path transform="matrix(1,0,0,-1,14.73,114.434009)" stroke-width=".3985" stroke-linecap="butt" stroke-miterlimit="10" stroke-linejoin="miter" fill="none" stroke="#9999ff" d="M235.27858-2.83441 277.7988 7.08669"/>
<path transform="matrix(1,0,0,-1,14.73,114.434009)" stroke-width=".3985" stroke-linecap="butt" stroke-miterlimit="10" stroke-linejoin="miter" fill="none" stroke="#9999ff" d="M189.92395-2.83441 235.27858-22.67754"/>
<path transform="matrix(1,0,0,-1,14.73,114.434009)" stroke-width=".3985" stroke-linecap="butt" stroke-miterlimit="10" stroke-linejoin="miter" fill="none" stroke="#9999ff" d="M189.92395-2.83441H235.27858"/>
<path transform="matrix(1,0,0,-1,14.73,114.434009)" stroke-width=".3985" stroke-linecap="butt" stroke-miterlimit="10" stroke-linejoin="miter" fill="none" stroke="#9999ff" d="M189.92395-2.83441 235.27858 17.00824"/>
<path transform="matrix(1,0,0,-1,14.73,114.434009)" stroke-width=".3985" stroke-linecap="butt" stroke-miterlimit="10" stroke-linejoin="miter" fill="none" stroke="#9999ff" d="M189.92395-2.83441 235.27858 36.85092"/>
<path transform="matrix(1,0,0,-1,14.73,114.434009)" stroke-width=".3985" stroke-linecap="butt" stroke-miterlimit="10" stroke-linejoin="miter" fill="none" stroke="#9999ff" d="M147.40373 7.08669 189.92395 17.00824"/>
<path transform="matrix(1,0,0,-1,14.73,114.434009)" stroke-width=".3985" stroke-linecap="butt" stroke-miterlimit="10" stroke-linejoin="miter" fill="none" stroke="#9999ff" d="M235.27858 17.00824 277.7988 7.08669"/>
<path transform="matrix(1,0,0,-1,14.73,114.434009)" stroke-width=".3985" stroke-linecap="butt" stroke-miterlimit="10" stroke-linejoin="miter" fill="none" stroke="#9999ff" d="M189.92395 17.00824 235.27858-22.67754"/>
<path transform="matrix(1,0,0,-1,14.73,114.434009)" stroke-width=".3985" stroke-linecap="butt" stroke-miterlimit="10" stroke-linejoin="miter" fill="none" stroke="#9999ff" d="M189.92395 17.00824 235.27858-2.83441"/>
<path transform="matrix(1,0,0,-1,14.73,114.434009)" stroke-width=".3985" stroke-linecap="butt" stroke-miterlimit="10" stroke-linejoin="miter" fill="none" stroke="#9999ff" d="M189.92395 17.00824H235.27858"/>
<path transform="matrix(1,0,0,-1,14.73,114.434009)" stroke-width=".3985" stroke-linecap="butt" stroke-miterlimit="10" stroke-linejoin="miter" fill="none" stroke="#9999ff" d="M189.92395 17.00824 235.27858 36.85092"/>
<path transform="matrix(1,0,0,-1,14.73,114.434009)" stroke-width=".3985" stroke-linecap="butt" stroke-miterlimit="10" stroke-linejoin="miter" fill="none" stroke="#9999ff" d="M147.40373 7.08669 189.92395 36.85092"/>
<path transform="matrix(1,0,0,-1,14.73,114.434009)" stroke-width=".3985" stroke-linecap="butt" stroke-miterlimit="10" stroke-linejoin="miter" fill="none" stroke="#9999ff" d="M235.27858 36.85092 277.7988 7.08669"/>
<path transform="matrix(1,0,0,-1,14.73,114.434009)" stroke-width=".3985" stroke-linecap="butt" stroke-miterlimit="10" stroke-linejoin="miter" fill="none" stroke="#9999ff" d="M189.92395 36.85092 235.27858-22.67754"/>
<path transform="matrix(1,0,0,-1,14.73,114.434009)" stroke-width=".3985" stroke-linecap="butt" stroke-miterlimit="10" stroke-linejoin="miter" fill="none" stroke="#9999ff" d="M189.92395 36.85092 235.27858-2.83441"/>
<path transform="matrix(1,0,0,-1,14.73,114.434009)" stroke-width=".3985" stroke-linecap="butt" stroke-miterlimit="10" stroke-linejoin="miter" fill="none" stroke="#9999ff" d="M189.92395 36.85092 235.27858 17.00824"/>
<path transform="matrix(1,0,0,-1,14.73,114.434009)" stroke-width=".3985" stroke-linecap="butt" stroke-miterlimit="10" stroke-linejoin="miter" fill="none" stroke="#9999ff" d="M189.92395 36.85092H235.27858"/>
<path transform="matrix(1,0,0,-1,14.73,114.434009)" d="M156.61643 7.08669C156.61643 12.17477 152.4918 16.2994 147.40373 16.2994 142.31565 16.2994 138.19103 12.17477 138.19103 7.08669 138.19103 1.9986 142.31565-2.126 147.40373-2.126 152.4918-2.126 156.61643 1.9986 156.61643 7.08669ZM147.40373 7.08669" fill="#ebebff"/>
<path transform="matrix(1,0,0,-1,14.73,114.434009)" stroke-width=".79701" stroke-linecap="butt" stroke-miterlimit="10" stroke-linejoin="miter" fill="none" stroke="#0000cc" d="M156.61643 7.08669C156.61643 12.17477 152.4918 16.2994 147.40373 16.2994 142.31565 16.2994 138.19103 12.17477 138.19103 7.08669 138.19103 1.9986 142.31565-2.126 147.40373-2.126 152.4918-2.126 156.61643 1.9986 156.61643 7.08669ZM147.40373 7.08669"/>
<path transform="matrix(1,0,0,-1,14.73,114.434009)" d="M199.13666-22.67754C199.13666-17.58945 195.01204-13.46483 189.92395-13.46483 184.83586-13.46483 180.71125-17.58945 180.71125-22.67754 180.71125-27.76561 184.83586-31.89023 189.92395-31.89023 195.01204-31.89023 199.13666-27.76561 199.13666-22.67754ZM189.92395-22.67754" fill="#ebebff"/>
<path transform="matrix(1,0,0,-1,14.73,114.434009)" stroke-width=".79701" stroke-linecap="butt" stroke-miterlimit="10" stroke-linejoin="miter" fill="none" stroke="#0000cc" d="M199.13666-22.67754C199.13666-17.58945 195.01204-13.46483 189.92395-13.46483 184.83586-13.46483 180.71125-17.58945 180.71125-22.67754 180.71125-27.76561 184.83586-31.89023 189.92395-31.89023 195.01204-31.89023 199.13666-27.76561 199.13666-22.67754ZM189.92395-22.67754"/>
<path transform="matrix(1,0,0,-1,14.73,114.434009)" d="M199.13666-2.83441C199.13666 2.25366 195.01204 6.37827 189.92395 6.37827 184.83586 6.37827 180.71125 2.25366 180.71125-2.83441 180.71125-7.9225 184.83586-12.04712 189.92395-12.04712 195.01204-12.04712 199.13666-7.9225 199.13666-2.83441ZM189.92395-2.83441" fill="#ebebff"/>
<path transform="matrix(1,0,0,-1,14.73,114.434009)" stroke-width=".79701" stroke-linecap="butt" stroke-miterlimit="10" stroke-linejoin="miter" fill="none" stroke="#0000cc" d="M199.13666-2.83441C199.13666 2.25366 195.01204 6.37827 189.92395 6.37827 184.83586 6.37827 180.71125 2.25366 180.71125-2.83441 180.71125-7.9225 184.83586-12.04712 189.92395-12.04712 195.01204-12.04712 199.13666-7.9225 199.13666-2.83441ZM189.92395-2.83441"/>
<path transform="matrix(1,0,0,-1,14.73,114.434009)" d="M199.13666 17.00824C199.13666 22.09633 195.01204 26.22095 189.92395 26.22095 184.83586 26.22095 180.71125 22.09633 180.71125 17.00824 180.71125 11.92015 184.83586 7.79553 189.92395 7.79553 195.01204 7.79553 199.13666 11.92015 199.13666 17.00824ZM189.92395 17.00824" fill="#ebebff"/>
<path transform="matrix(1,0,0,-1,14.73,114.434009)" stroke-width=".79701" stroke-linecap="butt" stroke-miterlimit="10" stroke-linejoin="miter" fill="none" stroke="#0000cc" d="M199.13666 17.00824C199.13666 22.09633 195.01204 26.22095 189.92395 26.22095 184.83586 26.22095 180.71125 22.09633 180.71125 17.00824 180.71125 11.92015 184.83586 7.79553 189.92395 7.79553 195.01204 7.79553 199.13666 11.92015 199.13666 17.00824ZM189.92395 17.00824"/>
<path transform="matrix(1,0,0,-1,14.73,114.434009)" d="M199.13666 36.85092C199.13666 41.93901 195.01204 46.06363 189.92395 46.06363 184.83586 46.06363 180.71125 41.93901 180.71125 36.85092 180.71125 31.76283 184.83586 27.63823 189.92395 27.63823 195.01204 27.63823 199.13666 31.76283 199.13666 36.85092ZM189.92395 36.85092" fill="#ebebff"/>
<path transform="matrix(1,0,0,-1,14.73,114.434009)" stroke-width=".79701" stroke-linecap="butt" stroke-miterlimit="10" stroke-linejoin="miter" fill="none" stroke="#0000cc" d="M199.13666 36.85092C199.13666 41.93901 195.01204 46.06363 189.92395 46.06363 184.83586 46.06363 180.71125 41.93901 180.71125 36.85092 180.71125 31.76283 184.83586 27.63823 189.92395 27.63823 195.01204 27.63823 199.13666 31.76283 199.13666 36.85092ZM189.92395 36.85092"/>
<path transform="matrix(1,0,0,-1,14.73,114.434009)" d="M244.49129-22.67754C244.49129-17.58945 240.36667-13.46483 235.27858-13.46483 230.19049-13.46483 226.06587-17.58945 226.06587-22.67754 226.06587-27.76561 230.19049-31.89023 235.27858-31.89023 240.36667-31.89023 244.49129-27.76561 244.49129-22.67754ZM235.27858-22.67754" fill="#ebebff"/>
<path transform="matrix(1,0,0,-1,14.73,114.434009)" stroke-width=".79701" stroke-linecap="butt" stroke-miterlimit="10" stroke-linejoin="miter" fill="none" stroke="#0000cc" d="M244.49129-22.67754C244.49129-17.58945 240.36667-13.46483 235.27858-13.46483 230.19049-13.46483 226.06587-17.58945 226.06587-22.67754 226.06587-27.76561 230.19049-31.89023 235.27858-31.89023 240.36667-31.89023 244.49129-27.76561 244.49129-22.67754ZM235.27858-22.67754"/>
<path transform="matrix(1,0,0,-1,14.73,114.434009)" d="M244.49129-2.83441C244.49129 2.25366 240.36667 6.37827 235.27858 6.37827 230.19049 6.37827 226.06587 2.25366 226.06587-2.83441 226.06587-7.9225 230.19049-12.04712 235.27858-12.04712 240.36667-12.04712 244.49129-7.9225 244.49129-2.83441ZM235.27858-2.83441" fill="#ebebff"/>
<path transform="matrix(1,0,0,-1,14.73,114.434009)" stroke-width=".79701" stroke-linecap="butt" stroke-miterlimit="10" stroke-linejoin="miter" fill="none" stroke="#0000cc" d="M244.49129-2.83441C244.49129 2.25366 240.36667 6.37827 235.27858 6.37827 230.19049 6.37827 226.06587 2.25366 226.06587-2.83441 226.06587-7.9225 230.19049-12.04712 235.27858-12.04712 240.36667-12.04712 244.49129-7.9225 244.49129-2.83441ZM235.27858-2.83441"/>
<path transform="matrix(1,0,0,-1,14.73,114.434009)" d="M244.49129 17.00824C244.49129 22.09633 240.36667 26.22095 235.27858 26.22095 230.19049 26.22095 226.06587 22.09633 226.06587 17.00824 226.06587 11.92015 230.19049 7.79553 235.27858 7.79553 240.36667 7.79553 244.49129 11.92015 244.49129 17.00824ZM235.27858 17.00824" fill="#ebebff"/>
<path transform="matrix(1,0,0,-1,14.73,114.434009)" stroke-width=".79701" stroke-linecap="butt" stroke-miterlimit="10" stroke-linejoin="miter" fill="none" stroke="#0000cc" d="M244.49129 17.00824C244.49129 22.09633 240.36667 26.22095 235.27858 26.22095 230.19049 26.22095 226.06587 22.09633 226.06587 17.00824 226.06587 11.92015 230.19049 7.79553 235.27858 7.79553 240.36667 7.79553 244.49129 11.92015 244.49129 17.00824ZM235.27858 17.00824"/>
<path transform="matrix(1,0,0,-1,14.73,114.434009)" d="M244.49129 36.85092C244.49129 41.93901 240.36667 46.06363 235.27858 46.06363 230.19049 46.06363 226.06587 41.93901 226.06587 36.85092 226.06587 31.76283 230.19049 27.63823 235.27858 27.63823 240.36667 27.63823 244.49129 31.76283 244.49129 36.85092ZM235.27858 36.85092" fill="#ebebff"/>
<path transform="matrix(1,0,0,-1,14.73,114.434009)" stroke-width=".79701" stroke-linecap="butt" stroke-miterlimit="10" stroke-linejoin="miter" fill="none" stroke="#0000cc" d="M244.49129 36.85092C244.49129 41.93901 240.36667 46.06363 235.27858 46.06363 230.19049 46.06363 226.06587 41.93901 226.06587 36.85092 226.06587 31.76283 230.19049 27.63823 235.27858 27.63823 240.36667 27.63823 244.49129 31.76283 244.49129 36.85092ZM235.27858 36.85092"/>
<path transform="matrix(1,0,0,-1,14.73,114.434009)" d="M287.0115 7.08669C287.0115 12.17477 282.8869 16.2994 277.7988 16.2994 272.71073 16.2994 268.5861 12.17477 268.5861 7.08669 268.5861 1.9986 272.71073-2.126 277.7988-2.126 282.8869-2.126 287.0115 1.9986 287.0115 7.08669ZM277.7988 7.08669" fill="#ebebff"/>
<path transform="matrix(1,0,0,-1,14.73,114.434009)" stroke-width=".79701" stroke-linecap="butt" stroke-miterlimit="10" stroke-linejoin="miter" fill="none" stroke="#0000cc" d="M287.0115 7.08669C287.0115 12.17477 282.8869 16.2994 277.7988 16.2994 272.71073 16.2994 268.5861 12.17477 268.5861 7.08669 268.5861 1.9986 272.71073-2.126 277.7988-2.126 282.8869-2.126 287.0115 1.9986 287.0115 7.08669ZM277.7988 7.08669"/>
<text xml:space="preserve" transform="matrix(1 0 -0 1 0 242.655)" font-size="6.9738" font-family="Computer Modern"><tspan y="-87.285" x="148.987 152.5297 156.71398 159.8243 162.93462 166.90271 171.30318">entrada</tspan></text>
<text xml:space="preserve" transform="matrix(1 0 -0 1 0 242.655)" font-size="6.9738" font-family="Computer Modern" font-style="italic"><tspan y="-79.315" x="159.873">x</tspan></text>
<text xml:space="preserve" transform="matrix(1 0 -0 1 0 242.655)" font-size="6.9738" font-family="Computer Modern"><tspan y="-87.285" x="191.454 194.99669 198.96479 205.50621 209.4743 213.87477">camada</tspan><tspan y="-79.315" x="193.92 198.10428 201.64698 206.04744 208.29998 211.4103">oculta</tspan></text>
<text xml:space="preserve" transform="matrix(1 0 -0 1 0 242.655)" font-size="6.9738" font-family="Computer Modern"><tspan y="-87.285" x="236.808 240.3507 244.31879 250.86022 254.82831 259.2288">camada</tspan><tspan y="-79.315" x="239.274 243.45829 247.00098 251.40145 253.65398 256.76429">oculta</tspan></text>
<text xml:space="preserve" transform="matrix(1 0 -0 1 .000030517579 242.655)" font-size="6.9738" font-family="Computer Modern"><tspan y="-87.963" x="283.65 286.8091 290.7772 293.02973 297.4302">sa&#x00ed;da</tspan></text>
<text xml:space="preserve" transform="matrix(1 0 -0 1 .000030517579 242.655)" font-size="6.9738" font-family="Computer Modern"><tspan y="-79.993" x="290.969">&#x02c6;</tspan></text>
<text xml:space="preserve" transform="matrix(1 0 -0 1 .000030517579 242.655)" font-size="6.9738" font-family="Computer Modern" font-style="italic"><tspan y="-79.993" x="290.3832">y</tspan></text>
<path transform="matrix(1,0,0,-1,14.73,114.434009)" stroke-width="1.49442" stroke-linecap="butt" stroke-miterlimit="10" stroke-linejoin="miter" fill="none" stroke="#0000cc" d="M300.47633 14.17339H317.21186"/>
<path transform="matrix(1,0,0,-1,328.16975,100.26061)" d="M7.58568 0 2.413 1.96426 4.14568 0 2.413-1.96426Z" fill="#0000cc"/>
<path transform="matrix(1,0,0,-1,328.16975,100.26061)" stroke-width="1.49442" stroke-linecap="butt" stroke-miterlimit="10" stroke-linejoin="miter" fill="none" stroke="#0000cc" d="M7.58568 0 2.413 1.96426 4.14568 0 2.413-1.96426Z"/>
<text xml:space="preserve" transform="matrix(1 0 -0 1 0 242.655)" font-size="8.9664" font-family="Computer Modern"><tspan y="-148.703" x="318.554">&#x02c6;</tspan></text>
<text xml:space="preserve" transform="matrix(1 0 -0 1 0 242.655)" font-size="8.9664" font-family="Computer Modern" font-style="italic"><tspan y="-148.703" x="317.9174">y</tspan></text>
<text xml:space="preserve" transform="matrix(1 0 -0 1 0 242.655)" font-size="8.9664" font-family="Computer Modern"><tspan y="-148.703" x="322.77717">(</tspan></text>
<text xml:space="preserve" transform="matrix(1 0 -0 1 0 242.655)" font-size="8.9664" font-family="Computer Modern" font-style="italic"><tspan y="-148.703" x="326.3637">x</tspan></text>
<text xml:space="preserve" transform="matrix(1 0 -0 1 0 242.655)" font-size="8.9664" font-family="Computer Modern"><tspan y="-148.703" x="331.59114">)</tspan></text>
<path transform="matrix(1,0,0,-1,14.73,114.434009)" stroke-width=".79701" stroke-linecap="butt" stroke-miterlimit="10" stroke-linejoin="miter" fill="none" stroke="#4c4d4c" d="M323.15388 0H423.9266"/>
<path transform="matrix(1,0,0,-1,436.19157,114.434009)" d="M5.44046 0 1.28699 1.5706 2.66432 0 1.28699-1.5706Z" fill="#4c4d4c"/>
<path transform="matrix(1,0,0,-1,436.19157,114.434009)" stroke-width=".79701" stroke-linecap="butt" stroke-miterlimit="10" stroke-linejoin="miter" fill="none" stroke="#4c4d4c" d="M5.44046 0 1.28699 1.5706 2.66432 0 1.28699-1.5706Z"/>
<text xml:space="preserve" transform="matrix(1 0 -0 1 0 242.655)" font-size="9.9626" font-family="Computer Modern" font-style="italic"><tspan y="-126.076" x="446.48">x</tspan></text>
<path transform="matrix(1,0,0,-1,14.73,114.434009)" stroke-width=".79701" stroke-linecap="butt" stroke-miterlimit="10" stroke-linejoin="miter" fill="none" stroke="#4c4d4c" d="M328.82316-42.5202V46.91397"/>
<path transform="matrix(0,-1,-1,-0,343.55317,69.98512)" d="M5.44046 0 1.28699 1.5706 2.66432 0 1.28699-1.5706Z" fill="#4c4d4c"/>
<path transform="matrix(0,-1,-1,-0,343.55317,69.98512)" stroke-width=".79701" stroke-linecap="butt" stroke-miterlimit="10" stroke-linejoin="miter" fill="none" stroke="#4c4d4c" d="M5.44046 0 1.28699 1.5706 2.66432 0 1.28699-1.5706Z"/>
<text xml:space="preserve" transform="matrix(1 0 -0 1 0 242.655)" font-size="9.9626" font-family="Computer Modern" font-style="italic"><tspan y="-184.9" x="340.928">y</tspan></text>
<path transform="matrix(1,0,0,-1,14.73,114.434009)" stroke-width=".79701" stroke-linecap="butt" stroke-dasharray="2.98883,2.98883" stroke-miterlimit="10" stroke-linejoin="miter" fill="none" stroke="#8c8c8c" d="M328.82316 0C328.82316 0 330.13539 1.57399 330.63938 2.17694 331.14338 2.7799 331.9516 3.74622 332.4556 4.34569 332.9596 4.94516 333.76786 5.90428 334.27183 6.49757 334.77583 7.09087 335.58406 8.03711 336.08808 8.62177 336.59205 9.20642 337.40028 10.13776 337.90428 10.71135 338.40827 11.28496 339.2165 12.19586 339.7205 12.75595 340.2245 13.31606 341.03276 14.20367 341.53675 14.74823 342.04075 15.2928 342.84898 16.15402 343.35295 16.68082 343.85697 17.20761 344.6652 18.03842 345.16917 18.54506 345.67317 19.0517 346.4814 19.84782 346.9854 20.3323 347.4894 20.81679 348.29765 21.5765 348.80165 22.03693 349.30564 22.49736 350.11387 23.21643 350.61787 23.65073 351.12187 24.08504 351.9301 24.76067 352.43409 25.1672 352.93809 25.57373 353.7463 26.20363 354.2503 26.58075 354.7543 26.95786 355.56257 27.53918 356.06657 27.88527 356.57054 28.23135 357.37879 28.76161 357.88279 29.0752 358.38676 29.38876 359.195 29.86533 359.699 30.1453 360.203 30.42525 361.01127 30.84782 361.51524 31.09297 362.01924 31.33812 362.82749 31.70317 363.33146 31.9122 363.83546 32.12123 364.64369 32.42705 365.1477 32.5995 365.65168 32.77197 366.45994 33.02023 366.9639 33.15532 367.4679 33.2904 368.27616 33.4763 368.78016 33.57315 369.28413 33.67 370.09236 33.79475 370.59638 33.85342 371.10038 33.91211 371.9086 33.97614 372.41258 33.99617 372.91658 34.01622 373.72483 34.01674 374.2288 33.99791 374.7328 33.97908 375.54106 33.91762 376.04505 33.86037 376.54905 33.80312 377.35728 33.68098 377.86128 33.58527 378.36528 33.48956 379.1735 33.3044 379.6775 33.17046 380.1815 33.0365 380.98976 32.79105 381.49375 32.61984 381.99775 32.44862 382.80598 32.14438 383.30995 31.93643 383.81398 31.72849 384.6222 31.36504 385.1262 31.1211 385.63017 30.87714 386.43843 30.45691 386.9424 30.17816 387.4464 29.8994 388.25465 29.42442 388.75865 29.11195 389.26264 28.79947 390.0709 28.27101 390.57487 27.92593 391.07887 27.58087 391.8871 27.00102 392.39109 26.62486 392.89509 26.2487 393.7033 25.62036 394.2073 25.21478 394.7113 24.8092 395.51957 24.13528 396.02354 23.70177 396.52754 23.26823 397.3358 22.54971 397.83979 22.09013 398.34376 21.63057 399.152 20.87303 399.65599 20.38939 400.16 19.90573 400.96824 19.11028 401.4722 18.60431 401.9762 18.09834 402.78446 17.26874 403.28846 16.74266 403.79243 16.21658 404.60069 15.35669 405.10469 14.81268 405.60868 14.26866 406.41694 13.38144 406.9209 12.8217 407.4249 12.26196 408.23316 11.35162 408.73716 10.7784 409.24113 10.20515 410.04939 9.27446 410.55339 8.69011 411.05738 8.10576 411.8656 7.15976 412.36958 6.56677 412.87358 5.97379 413.68183 5.01537 414.1858 4.4162 414.6898 3.81703 415.49806 2.85127 416.00205 2.24832 416.50605 1.64537 417.81828 .07048 417.81828 .07048"/>
<path transform="matrix(1,0,0,-1,14.73,114.434009)" stroke-width="1.19553" stroke-linecap="butt" stroke-miterlimit="10" stroke-linejoin="miter" fill="none" stroke="#cc0000" d="M328.82316 2.26778C328.82316 2.26778 330.13539 3.82281 330.63938 4.40279 331.14338 4.98276 331.9516 5.89343 332.4556 6.44783 332.9596 7.00224 333.76786 7.87082 334.27183 8.39857 334.77583 8.92632 335.58406 9.75052 336.08808 10.25157 336.59205 10.75261 337.40028 11.53482 337.90428 12.00983 338.40827 12.48483 339.2165 13.22488 339.7205 13.6751 340.2245 14.12532 341.03276 14.82732 341.53675 15.25473 342.04075 15.68216 342.84898 16.34894 343.35295 16.75565 343.85697 17.16234 344.6652 17.79807 345.16917 18.18605 345.67317 18.57402 346.4814 19.1804 346.9854 19.552 347.4894 19.9236 348.29765 20.50676 348.80165 20.86432 349.30564 21.22186 350.11387 21.78386 350.61787 22.12906 351.12187 22.47424 351.9301 23.01784 352.43409 23.35228 352.93809 23.68672 353.7463 24.2148 354.2503 24.53958 354.7543 24.86438 355.56257 25.3778 356.06657 25.69318 356.57054 26.00854 357.37879 26.50702 357.88279 26.81259 358.38676 27.11816 359.195 27.60057 359.699 27.89566 360.203 28.19073 361.01127 28.6566 361.51524 28.93938 362.01924 29.22215 362.82749 29.66602 363.33146 29.93378 363.83546 30.20155 364.64369 30.61917 365.1477 30.86935 365.65168 31.11955 366.45994 31.50815 366.9639 31.73703 367.4679 31.96591 368.27616 32.3158 368.78016 32.51906 369.28413 32.72232 370.09236 33.02824 370.59638 33.20204 371.10038 33.37582 371.9086 33.63211 372.41258 33.77168 372.91658 33.91127 373.72483 34.10736 374.2288 34.20813 374.7328 34.30888 375.54106 34.43983 376.04505 34.49792 376.54905 34.556 377.35728 34.61572 377.86128 34.62682 378.36528 34.63791 379.1735 34.6176 379.6775 34.57794 380.1815 34.53828 380.98976 34.43387 381.49375 34.34091 381.99775 34.24796 382.80598 34.05646 383.30995 33.90793 383.81398 33.7594 384.6222 33.47603 385.1262 33.27037 385.63017 33.06473 386.43843 32.68855 386.9424 32.42563 387.4464 32.1627 388.25465 31.69505 388.75865 31.37543 389.26264 31.05582 390.0709 30.49701 390.57487 30.12193 391.07887 29.74686 391.8871 29.0999 392.39109 28.67206 392.89509 28.24423 393.7033 27.51541 394.2073 27.03836 394.7113 26.56133 395.51957 25.756 396.02354 25.23381 396.52754 24.71164 397.3358 23.83688 397.83979 23.27486 398.34376 22.71284 399.152 21.77933 399.65599 21.1831 400.16 20.58687 400.96824 19.6021 401.4722 18.9776 401.9762 18.3531 402.78446 17.32834 403.28846 16.68211 403.79243 16.03589 404.60069 14.98135 405.10469 14.32 405.60868 13.65866 406.41694 12.58546 406.9209 11.91554 407.4249 11.24562 408.23316 10.16386 408.73716 9.49161 409.24113 8.81935 410.04939 7.73868 410.55339 7.07025 411.05738 6.40182 411.8656 5.33311 412.36958 4.674 412.87358 4.01486 413.68183 2.96465 414.1858 2.31969 414.6898 1.67473 415.49806 .65216 416.00205 .0255 416.50605-.60114 417.81828-2.19684 417.81828-2.19684"/>
<path transform="matrix(1,0,0,-1,14.73,114.434009)" stroke-width=".79701" stroke-linecap="butt" stroke-dasharray="2.98883,2.98883" stroke-miterlimit="10" stroke-linejoin="miter" fill="none" stroke="#8c8c8c" d="M337.32728 73.70186H351.50068"/>
<text xml:space="preserve" transform="matrix(1 0 -0 1 .000030517579 242.655)" font-size="6.9738" font-family="Computer Modern"><tspan y="-199.52" x="372.58 375.6903 379.233 381.70173 385.24443 388.35475 391.89744 396.2979 399.8406 402.09315">refer&#x00ea;ncia</tspan></text>
<path transform="matrix(1,0,0,-1,14.73,114.434009)" stroke-width="1.19553" stroke-linecap="butt" stroke-miterlimit="10" stroke-linejoin="miter" fill="none" stroke="#cc0000" d="M337.32728 59.52846H351.50068"/>
<text xml:space="preserve" transform="matrix(1 0 -0 1 .000030517579 242.655)" font-size="6.9738" font-family="Computer Modern"><tspan y="-185.347" x="372.58 379.74906 384.67256">MLP</tspan></text>
<text xml:space="preserve" transform="matrix(1 0 -0 1 0 242.655)" font-size="9.9626" font-family="Computer Modern" font-weight="bold"><tspan y="-69.059" x="337.312 343.55857 349.92466 356.29075 361.38163 366.9507 376.49488 382.06398 388.44 393.16227 398.57194 404.61924 407.7973 417.34147 422.9006 429.27665">Fun&#x00e7;&#x00e3;oaproximada</tspan></text>
<text xml:space="preserve" transform="matrix(1 0 -0 1 .000030517579 242.655)" font-size="8.9664" font-family="Computer Modern"><tspan y="-57.948" x="360.085">&#x02c6;</tspan></text>
<text xml:space="preserve" transform="matrix(1 0 -0 1 .000030517579 242.655)" font-size="8.9664" font-family="Computer Modern" font-style="italic"><tspan y="-57.948" x="359.4484">y</tspan></text>
<text xml:space="preserve" transform="matrix(1 0 -0 1 .000030517579 242.655)" font-size="8.9664" font-family="Computer Modern"><tspan y="-57.948" x="364.30818">(</tspan></text>
<text xml:space="preserve" transform="matrix(1 0 -0 1 .000030517579 242.655)" font-size="8.9664" font-family="Computer Modern" font-style="italic"><tspan y="-57.948" x="367.8947">x</tspan></text>
<text xml:space="preserve" transform="matrix(1 0 -0 1 .000030517579 242.655)" font-size="8.9664" font-family="Computer Modern"><tspan y="-57.948" x="373.12214">)</tspan></text>
<text xml:space="preserve" transform="matrix(1 0 -0 1 .000030517579 242.655)" font-size="8.9664" font-family="Computer Modern" font-style="italic"><tspan y="-57.948" x="379.2641">&#x2248;</tspan></text>
<text xml:space="preserve" transform="matrix(1 0 -0 1 .000030517579 242.655)" font-size="8.9664" font-family="Computer Modern"><tspan y="-57.948" x="388.99266 392.62403 395.18843 400.30824">sin(</tspan></text>
<text xml:space="preserve" transform="matrix(1 0 -0 1 .000030517579 242.655)" font-size="8.9664" font-family="Computer Modern" font-style="italic"><tspan y="-57.948" x="403.89479">x</tspan></text>
<text xml:space="preserve" transform="matrix(1 0 -0 1 .000030517579 242.655)" font-size="8.9664" font-family="Computer Modern"><tspan y="-57.948" x="409.1222">)</tspan></text>
<path transform="matrix(1,0,0,-1,14.73,114.434009)" d="M379.58039-86.23082H45.62173C43.42079-86.23082 41.63663-88.01498 41.63663-90.21593V-119.55026C41.63663-121.7512 43.42079-123.53537 45.62173-123.53537H379.58039C381.78135-123.53537 383.5655-121.7512 383.5655-119.55026V-90.21593C383.5655-88.01498 381.78135-86.23082 379.58039-86.23082ZM41.63663-123.53537" fill="#f5f5ff"/>
<path transform="matrix(1,0,0,-1,14.73,114.434009)" stroke-width=".79701" stroke-linecap="butt" stroke-miterlimit="10" stroke-linejoin="miter" fill="none" stroke="#000099" d="M379.58039-86.23082H45.62173C43.42079-86.23082 41.63663-88.01498 41.63663-90.21593V-119.55026C41.63663-121.7512 43.42079-123.53537 45.62173-123.53537H379.58039C381.78135-123.53537 383.5655-121.7512 383.5655-119.55026V-90.21593C383.5655-88.01498 381.78135-86.23082 379.58039-86.23082ZM41.63663-123.53537"/>
<text xml:space="preserve" transform="matrix(1 0 -0 1 0 242.655)" font-size="9.9626" font-family="Computer Modern"><tspan y="-26.549" x="85.711 95.6736 99.08081 103.5042 108.65487 116.40577 121.18782 123.84783 128.99849 132.81417 136.41066 144.51026 149.49155 156.62477 160.44045 164.86385 170.01451 177.1577 182.57736 187.00077 190.81644 195.79773 202.94092 210.68187 215.27463 217.65569 222.07909 225.89476 230.31816 237.45139 242.60205 247.1151 250.52231 258.6219 263.0453 268.02659 273.17726 276.99293 280.58943 283.9966 289.14729 291.52836 298.25309 303.40376 311.31407 319.4236 322.47218 327.62284 332.7735 337.1969 341.97895">Aredeajustaosseuspesoseviesesparaconstruirumafun&#x00e7;&#x00e3;o</tspan></text>
<text xml:space="preserve" transform="matrix(1 0 -0 1 0 242.655)" font-size="9.9626" font-family="Computer Modern"><tspan y="-26.549" x="350.9652">&#x02c6;</tspan></text>
<text xml:space="preserve" transform="matrix(1 0 -0 1 0 242.655)" font-size="9.9626" font-family="Computer Modern" font-style="italic"><tspan y="-26.549" x="350.27778">y</tspan></text>
<text xml:space="preserve" transform="matrix(1 0 -0 1 0 242.655)" font-size="9.9626" font-family="Computer Modern"><tspan y="-26.549" x="355.5181">(</tspan></text>
<text xml:space="preserve" transform="matrix(1 0 -0 1 0 242.655)" font-size="9.9626" font-family="Computer Modern" font-style="italic"><tspan y="-26.549" x="359.39356">x</tspan></text>
<text xml:space="preserve" transform="matrix(1 0 -0 1 0 242.655)" font-size="9.9626" font-family="Computer Modern"><tspan y="-26.549" x="365.09217">)</tspan></text>
<text xml:space="preserve" transform="matrix(1 0 -0 1 0 242.655)" font-size="9.9626" font-family="Computer Modern"><tspan y="-14.594" x="93.649 98.79967 103.95033 111.69127 115.09848 119.52187 124.40355 127.81076 133.06105 138.21172 143.36238 147.6961 152.47815 158.57527 162.99868 167.97997 179.20783 187.50667 195.41698 199.84038 204.99105 209.69339 216.42812 220.85152 224.25873 227.66594 235.96479 241.3944 246.37569 250.19136 254.00704 256.3881 260.98088 265.40428 267.78535 273.87248 278.85377 285.98698 291.13764 295.91969 301.07035 306.05165 313.19483 318.17613 323.32679 327.14247 331.56587 334.97306 339.56584 344.34788 349.49855 354.47984 358.2955">quereproduza,comomenorerroposs&#x00ed;vel,osdadosobservados.</tspan></text>
</svg>
